
<svg width="100" height="100" viewBox="0 0 100 100" xmlns="http://www.w3.org/2000/svg">
  <defs>
    <pattern id="henna-pattern" x="0" y="0" width="100" height="100" patternUnits="userSpaceOnUse">
      <path fill="none" stroke="#e0a87d" stroke-width="0.5" opacity="0.1" d="M10,10 C30,30 70,30 90,10 C70,-10 30,-10 10,10 Z" />
      <path fill="none" stroke="#e0a87d" stroke-width="0.5" opacity="0.1" d="M10,90 C30,70 70,70 90,90 C70,110 30,110 10,90 Z" />
      <path fill="none" stroke="#e0a87d" stroke-width="0.5" opacity="0.1" d="M50,0 C40,25 40,75 50,100 C60,75 60,25 50,0 Z" />
      <circle cx="50" cy="50" r="3" fill="#e0a87d" opacity="0.1" />
      <circle cx="30" cy="30" r="2" fill="#e0a87d" opacity="0.1" />
      <circle cx="70" cy="30" r="2" fill="#e0a87d" opacity="0.1" />
      <circle cx="30" cy="70" r="2" fill="#e0a87d" opacity="0.1" />
      <circle cx="70" cy="70" r="2" fill="#e0a87d" opacity="0.1" />
    </pattern>
  </defs>
  <rect width="100" height="100" fill="url(#henna-pattern)" />
</svg>
